<mxfile host="app.diagrams.net" modified="2023-05-19T08:04:52.265Z" agent="Mozilla/5.0 (Windows NT 10.0; Win64; x64) AppleWebKit/537.36 (KHTML, like Gecko) Chrome/113.0.0.0 Safari/537.36" version="21.3.2" etag="RTB3jQmrT-VD1JHnRyF5" type="github">
  <diagram name="Page-1" id="0uB9tTqkH3L2_EY3-Jaz">
    <mxGraphModel>
      <root>
        <mxCell id="0" />
        <mxCell id="1" parent="0" />
      </root>
    </mxGraphModel>
  </diagram>
</mxfile>
